<?xml version="1.0" encoding="UTF-8"?>
<svg version="1.1" xmlns="http://www.w3.org/2000/svg" width="1080" height="1080">
<path d="M0 0 C51.81 0 103.62 0 157 0 C157 0.66 157 1.32 157 2 C158.32 2 159.64 2 161 2 C161 2.66 161 3.32 161 4 C161.9075 4.0825 162.815 4.165 163.75 4.25 C167.45758451 5.10559643 168.50232761 6.24394771 171 9 C171.99 9.33 172.98 9.66 174 10 C176.1385485 12.1385485 176.42655063 13.13275314 177 16 C177.99 16 178.98 16 180 16 C180 17.32 180 18.64 180 20 C180.99 20 181.98 20 183 20 C183.33 21.98 183.66 23.96 184 26 C184.66 26 185.32 26 186 26 C186.99 29.96 186.99 29.96 188 34 C188.66 34 189.32 34 190 34 C190 37.63 190 41.26 190 45 C190.99 45 191.98 45 193 45 C193.04898438 45.71027344 193.09796875 46.42054687 193.1484375 47.15234375 C193.26058594 48.53099609 193.26058594 48.53099609 193.375 49.9375 C193.47941406 51.31228516 193.47941406 51.31228516 193.5859375 52.71484375 C193.72257813 53.46894531 193.85921875 54.22304687 194 55 C194.66 55.33 195.32 55.66 196 56 C196.4140625 58.50390625 196.4140625 58.50390625 196.625 61.5625 C196.73714844 63.08037109 196.73714844 63.08037109 196.8515625 64.62890625 C196.92503906 65.80259766 196.92503906 65.80259766 197 67 C197.66 67 198.32 67 199 67 C199.33 70.63 199.66 74.26 200 78 C200.99 77.67 201.98 77.34 203 77 C203.33 80.63 203.66 84.26 204 88 C204.66 87.67 205.32 87.34 206 87 C206.07347656 88.17369141 206.07347656 88.17369141 206.1484375 89.37109375 C206.26058594 90.88896484 206.26058594 90.88896484 206.375 92.4375 C206.47941406 93.95150391 206.47941406 93.95150391 206.5859375 95.49609375 C206.72257813 96.32238281 206.85921875 97.14867187 207 98 C207.66 98.33 208.32 98.66 209 99 C209.39465208 101.58317727 209.50806152 104.14188281 209.65625 106.75 C209.82640625 107.86375 209.82640625 107.86375 210 109 C210.66 109.33 211.32 109.66 212 110 C212.4140625 112.50390625 212.4140625 112.50390625 212.625 115.5625 C212.73714844 117.08037109 212.73714844 117.08037109 212.8515625 118.62890625 C212.92503906 119.80259766 212.92503906 119.80259766 213 121 C213.66 121 214.32 121 215 121 C215.33 124.63 215.66 128.26 216 132 C216.99 131.67 217.98 131.34 219 131 C219.33 134.63 219.66 138.26 220 142 C220.66 142 221.32 142 222 142 C222 144.31 222 146.62 222 149 C222.63998432 148.9992201 223.27996864 148.99844019 223.93934643 148.99763666 C293.60571883 148.91291661 363.27209716 148.83438789 432.93850708 148.7882843 C433.97892255 148.78759402 435.01933803 148.78690373 436.09128124 148.78619253 C458.701535 148.77122849 481.31178931 148.75737751 503.92204445 148.74467335 C515.00987871 148.73843659 526.09771283 148.73195383 537.18554688 148.7253418 C538.28892803 148.724688 539.39230919 148.72403421 540.52912615 148.7233606 C576.30208664 148.70204843 612.07500768 148.66448784 647.84794427 148.6185139 C684.60490297 148.57136105 721.36183984 148.54057513 758.11882829 148.53042505 C763.30879375 148.52898425 768.49875914 148.52735606 773.68872452 148.52561378 C774.71019849 148.52527667 775.73167247 148.52493955 776.7841002 148.52459222 C793.23648402 148.51868035 809.68880037 148.49548122 826.14115665 148.46583983 C842.67560565 148.43641865 859.20998767 148.42515633 875.74446194 148.43249311 C885.57163228 148.43630011 895.39855774 148.42612091 905.22568393 148.39601228 C911.78894898 148.37727493 918.35205352 148.37667307 924.91532962 148.39084093 C928.65590823 148.39839568 932.39602347 148.39804308 936.13655256 148.37558409 C940.1674737 148.35156548 944.1973348 148.36629311 948.22828484 148.38476086 C949.38762598 148.37162579 950.54696712 148.35849072 951.74143982 148.34495762 C959.36439021 148.42413819 964.48293909 150.12049089 971 154 C972.32803592 154.6771579 973.65972175 155.34740791 975 156 C975 156.99 975 157.98 975 159 C975.99 159 976.98 159 978 159 C979.37868281 160.62935241 980.71274093 162.29749607 982 164 C982.66 164.33 983.32 164.66 984 165 C984.625 167.5625 984.625 167.5625 985 170 C985.99 170 986.98 170 988 170 C988.33 171.65 988.66 173.3 989 175 C989.66 175 990.32 175 991 175 C991.06058594 175.71027344 991.12117188 176.42054688 991.18359375 177.15234375 C991.26738281 178.07144531 991.35117188 178.99054688 991.4375 179.9375 C991.51871094 180.85402344 991.59992187 181.77054688 991.68359375 182.71484375 C991.76044976 184.96159732 991.76044976 184.96159732 993 186 C993.09981214 188.6773138 993.13879875 191.32304175 993.125 194 C993.12886719 194.75023437 993.13273437 195.50046875 993.13671875 196.2734375 C993.12661053 201.87338947 993.12661053 201.87338947 992 203 C991.76298761 205.85877909 991.57780818 208.69883297 991.4375 211.5625 C991.39431641 212.36880859 991.35113281 213.17511719 991.30664062 214.00585938 C991.20024738 216.00368805 991.09959112 218.0018207 991 220 C990.01 219.67 989.02 219.34 988 219 C988 224.28 988 229.56 988 235 C987.01 235 986.02 235 985 235 C984.67 240.61 984.34 246.22 984 252 C983.34 252 982.68 252 982 252 C981.67 257.94 981.34 263.88 981 270 C980.34 270 979.68 270 979 270 C978.67 275.61 978.34 281.22 978 287 C977.34 286.67 976.68 286.34 976 286 C975.67 291.61 975.34 297.22 975 303 C974.01 302.67 973.02 302.34 972 302 C971.67 307.61 971.34 313.22 971 319 C970.34 319 969.68 319 969 319 C968.67 324.61 968.34 330.22 968 336 C967.34 336 966.68 336 966 336 C965.67 341.61 965.34 347.22 965 353 C964.34 353 963.68 353 963 353 C962.67 358.61 962.34 364.22 962 370 C961.01 369.67 960.02 369.34 959 369 C959 374.94 959 380.88 959 387 C958.01 386.67 957.02 386.34 956 386 C955.95101562 387.20398438 955.90203125 388.40796875 955.8515625 389.6484375 C955.77653657 391.22398198 955.70098867 392.79950166 955.625 394.375 C955.5940625 395.1690625 955.563125 395.963125 955.53125 396.78125 C955.2265625 402.7734375 955.2265625 402.7734375 953 405 C952.61203696 408.63715353 952.49214455 412.25594045 952.34375 415.91015625 C952.2303125 416.92980469 952.116875 417.94945312 952 419 C951.01 419.495 951.01 419.495 950 420 C949.68758545 422.71446979 949.48663408 425.33909361 949.375 428.0625 C949.33632813 428.82111328 949.29765625 429.57972656 949.2578125 430.36132812 C949.16326438 432.24047195 949.08053244 434.12020336 949 436 C948.34 436 947.68 436 947 436 C946.67 441.94 946.34 447.88 946 454 C945.34 453.67 944.68 453.34 944 453 C943.93941406 453.90363281 943.87882813 454.80726563 943.81640625 455.73828125 C943.73261719 456.91777344 943.64882813 458.09726562 943.5625 459.3125 C943.48128906 460.48425781 943.40007813 461.65601563 943.31640625 462.86328125 C943 466 943 466 942 469 C941.34 469 940.68 469 940 469 C939.67 474.61 939.34 480.22 939 486 C938.34 486 937.68 486 937 486 C936.67 491.61 936.34 497.22 936 503 C935.34 503 934.68 503 934 503 C933.67 508.61 933.34 514.22 933 520 C932.34 520 931.68 520 931 520 C930.67 525.61 930.34 531.22 930 537 C929.01 536.67 928.02 536.34 927 536 C926.67 541.61 926.34 547.22 926 553 C925.34 553 924.68 553 924 553 C923.95101562 554.14339844 923.90203125 555.28679688 923.8515625 556.46484375 C923.77654811 557.95575473 923.70099972 559.44663892 923.625 560.9375 C923.5940625 561.69224609 923.563125 562.44699219 923.53125 563.22460938 C923.4273685 565.15507395 923.22104386 567.07942081 923 569 C922.34 569.33 921.68 569.66 921 570 C920.53045739 573.04581269 920.53045739 573.04581269 920.375 576.5625 C920.30023437 577.76003906 920.22546875 578.95757813 920.1484375 580.19140625 C920.09945312 581.11824219 920.05046875 582.04507813 920 583 C919.34 583 918.68 583 918 583 C917.67 585.31 917.34 587.62 917 590 C916.01 589.67 915.02 589.34 914 589 C914 590.65 914 592.3 914 594 C913.01 594.33 912.02 594.66 911 595 C910.67 595.99 910.34 596.98 910 598 C908.625 599.6875 908.625 599.6875 907 601 C906.01 601 905.02 601 904 601 C904 601.66 904 602.32 904 603 C903.01 603 902.02 603 901 603 C901 603.99 901 604.98 901 606 C900.030625 606.28875 899.06125 606.5775 898.0625 606.875 C894.89335797 607.64214682 894.89335797 607.64214682 894 610 C891.75 610.59765625 891.75 610.59765625 889 611.0625 C885.69940294 611.4045351 885.69940294 611.4045351 883 613 C881.58325497 613.13262748 880.16057569 613.20325616 878.73828125 613.24609375 C877.86623047 613.27896484 876.99417969 613.31183594 876.09570312 613.34570312 C874.25987021 613.4062534 872.423929 613.46361571 870.58789062 613.51757812 C865.62875502 613.71041319 861.71208577 614.36519473 857 616 C854.23024846 616.24084796 851.52291671 616.41506381 848.75 616.5 C844.10308308 616.64548359 839.69951981 616.99586606 835.14453125 617.96875 C828.84941083 619.31293837 822.53124195 619.7306564 816.12304688 620.2109375 C810.98958058 620.62881967 806.16412905 621.35679683 801.15942383 622.55859375 C796.8920101 623.43089268 792.55966153 623.43271876 788.21875 623.56640625 C784.75975537 623.71211481 781.92829607 624.02093068 778.57421875 625 C773.38701279 626.45128385 768.29734927 626.42397586 762.93945312 626.56640625 C758.1969267 626.74079171 754.51919302 627.47372901 750 629 C747.0674222 629.32922167 744.1359266 629.41152877 741.1875 629.5 C735.71424657 629.72736903 730.67365764 630.1207858 725.3671875 631.53515625 C722.09697431 632.17732683 718.82102186 632.28541027 715.5 632.4375 C708.96502242 632.74542685 702.72658865 633.67052036 696.30908203 634.91162109 C690.31976862 636.03435842 684.46278521 636.46740322 678.3671875 636.69140625 C674.95760375 636.89354861 674.95760375 636.89354861 671.6328125 637.99609375 C666.64047083 639.37569785 661.82306195 639.41947642 656.671875 639.56640625 C653.05124218 639.70802964 650.03971014 639.98855203 646.53125 641 C641.3897286 642.45600606 636.34215719 642.42367034 631.02734375 642.56640625 C626.01821287 642.75133404 621.83522641 643.57722074 617 645 C614.35510454 645.23510182 611.77215121 645.40829068 609.125 645.5 C602.78328663 645.79883114 602.78328663 645.79883114 596.5625 647 C592.38346594 648.08845564 588.23190638 648.25423127 583.9375 648.4375 C577.44675518 648.72249428 571.32313673 649.582152 564.97070312 650.91162109 C558.86118126 652.14230525 552.84186358 652.48128813 546.62109375 652.69140625 C542.99257718 652.87998562 542.99257718 652.87998562 539.59765625 653.99609375 C534.62069609 655.38488719 529.81044821 655.41983621 524.671875 655.56640625 C521.05124218 655.70802964 518.03971014 655.98855203 514.53125 657 C509.3897286 658.45600606 504.34215719 658.42367034 499.02734375 658.56640625 C495.28201194 658.70467693 492.13149668 658.96238754 488.50390625 660 C483.34897378 661.47119589 478.27099714 661.42467639 472.93945312 661.56640625 C471.72999023 661.61087891 471.72999023 661.61087891 470.49609375 661.65625 C469.77607178 661.67494141 469.0560498 661.69363281 468.31420898 661.71289062 C465.86133295 661.93770237 465.86133295 661.93770237 463.10009766 662.98632812 C459.92364409 664.0249669 457.23004566 664.36599966 453.90234375 664.5625 C452.77119141 664.63726563 451.64003906 664.71203125 450.47460938 664.7890625 C448.11264404 664.92991963 445.75066481 665.07054386 443.38867188 665.2109375 C442.25880859 665.28570313 441.12894531 665.36046875 439.96484375 665.4375 C438.9399585 665.49808594 437.91507324 665.55867187 436.85913086 665.62109375 C433.93586723 666.00849919 431.7138883 666.88666646 429 668 C426.78344727 668.28710938 426.78344727 668.28710938 424.56640625 668.34375 C423.75236328 668.37339844 422.93832031 668.40304687 422.09960938 668.43359375 C421.26236328 668.45550781 420.42511719 668.47742188 419.5625 668.5 C413.89900225 668.64892415 409.39577531 669.17527281 404 671 C401.04680877 671.32896669 398.09411301 671.41573469 395.125 671.5 C389.83878138 671.65154421 385.12799664 672.13934812 380.02734375 673.54101562 C375.63896253 674.53453161 371.10362583 674.43784955 366.62304688 674.56640625 C363.01898152 674.70822576 360.02138964 674.99386461 356.52734375 675.99609375 C352.18229456 677.23272458 348.11922297 677.41532497 343.625 677.5625 C338.7285135 677.74809263 333.84208354 677.9609738 328.9609375 678.40234375 C328.22407715 678.46800537 327.4872168 678.53366699 326.72802734 678.60131836 C326.15777832 678.7328833 325.5875293 678.86444824 325 679 C324.67 679.66 324.34 680.32 324 681 C323.34 680.67 322.68 680.34 322 680 C322 683.96 322 687.92 322 692 C321.34 691.67 320.68 691.34 320 691 C318.7960663 694.75399798 318.90122383 698.33217412 318.9375 702.25 C318.95103516 704.14492187 318.95103516 704.14492187 318.96484375 706.078125 C318.97644531 707.04234375 318.98804688 708.0065625 319 709 C319.99 708.67 320.98 708.34 322 708 C322 709.32 322 710.64 322 712 C322.969375 712.144375 323.93875 712.28875 324.9375 712.4375 C328 713 328 713 329 714 C330.82630965 714.3698855 332.66145374 714.69673464 334.5 715 C339.88888889 715.88888889 339.88888889 715.88888889 341 717 C348.50188548 718.11045056 356.1183766 718.1930474 363.6875 718.1875 C364.72970703 718.18741943 365.77191406 718.18733887 366.84570312 718.18725586 C375.38425688 718.12470476 383.56994808 717.31240581 392 716 C399.6769251 714.87892522 407.31892145 714.68062958 415.06835938 714.48242188 C419.61352934 714.32986076 423.90030287 714.14062854 428.3125 712.99609375 C435.40369809 711.2302887 442.80914966 711.58291071 450.07348633 711.46826172 C459.60947722 711.33842557 459.60947722 711.33842557 468.89086914 709.45898438 C474.02969324 708.34068488 479.4497651 708.59487639 484.6875 708.5 C491.59829539 708.37278449 498.34866742 708.20411988 505.171875 707.03515625 C513.91352288 705.56303269 522.72031386 705.32362534 531.5625 704.9375 C534.14467923 704.82152015 536.72671349 704.70348676 539.30857849 704.58070374 C540.9010469 704.50525235 542.49371092 704.43378969 544.08656311 704.3669281 C547.53116507 704.20627898 550.67275921 703.8668383 554 703 C560.80691683 702.23541652 567.66138909 701.998279 574.50390625 701.78515625 C575.67300537 701.74777344 576.84210449 701.71039062 578.04663086 701.671875 C580.38186082 701.60049729 582.7173266 701.53636071 585.05297852 701.48046875 C590.34709693 701.32049539 595.40923043 701.00280135 600.61328125 699.99609375 C610.01940487 698.28342254 619.63602269 698.5844138 629.16674805 698.46826172 C640.33569739 698.48593578 640.33569739 698.48593578 651.36328125 697 C660.24941997 695.09392281 669.57803558 695.59799245 678.625 695.5 C693.96310711 695.40113295 693.96310711 695.40113295 709.21875 694.00390625 C721.03724906 692.38901005 732.96772372 692.57170595 744.875 692.4375 C749.88547219 692.3682833 754.8958546 692.29329207 759.90625 692.21875 C761.13072845 692.2013829 762.35520691 692.18401581 763.61679077 692.16612244 C772.83486518 692.03147623 782.04686272 691.80460496 791.26092529 691.50582886 C811.25540602 690.85958868 831.1922983 690.81185656 851.1875 691.4375 C853.06646973 691.49623291 853.06646973 691.49623291 854.98339844 691.55615234 C861.37561709 691.77724551 867.76352953 692.06116998 874.1484375 692.4375 C875.95900635 692.54191406 875.95900635 692.54191406 877.80615234 692.6484375 C881.76848893 693.08459135 884.54531711 694.06200716 888 696 C888 696.66 888 697.32 888 698 C888.99 698 889.98 698 891 698 C891 698.66 891 699.32 891 700 C891.99 700 892.98 700 894 700 C894 700.99 894 701.98 894 703 C894.99 703 895.98 703 897 703 C897.33 703.99 897.66 704.98 898 706 C898.99 706.33 899.98 706.66 901 707 C901.33 708.65 901.66 710.3 902 712 C902.66 712 903.32 712 904 712 C904.1953125 714.05078125 904.390625 716.1015625 904.5859375 718.15234375 C904.72257813 718.76207031 904.85921875 719.37179687 905 720 C905.66 720.33 906.32 720.66 907 721 C907 726.28 907 731.56 907 737 C906.34 737 905.68 737 905 737 C904.67 739.97 904.34 742.94 904 746 C903.34 746 902.68 746 902 746 C901.67 747.65 901.34 749.3 901 751 C900.01 751.33 899.02 751.66 898 752 C896.65576661 753.65788785 895.32381517 755.32576317 894 757 C889.67567568 761 889.67567568 761 885 761 C884.67 761.99 884.34 762.98 884 764 C878.37259993 764.80457478 872.95053119 765.13581812 867.27099609 765.09765625 C866.43709854 765.09619598 865.60320099 765.09473572 864.74403381 765.0932312 C862.94406917 765.08944583 861.14410818 765.08335133 859.34415817 765.07516479 C856.47264615 765.06227195 853.60118104 765.05585092 850.72964478 765.05102539 C843.58684886 765.03772719 836.44409681 765.0137363 829.30133057 764.98962402 C823.27421931 764.96964319 817.24712605 764.95409857 811.21998978 764.94406128 C808.43222021 764.93771905 805.64452688 764.92520659 802.85678101 764.91235352 C793.65668553 764.88563901 784.48331697 765.03287284 775.29150391 765.44140625 C774.40834188 765.48039536 773.52517986 765.51938446 772.61525536 765.55955505 C767.44890002 765.81270251 762.32464468 766.24481973 757.18074608 766.78475952 C754.760354 767.02365315 752.35939613 767.1483237 749.92773438 767.18945312 C749.06563354 767.20617065 748.20353271 767.22288818 747.31530762 767.2401123 C745.9681366 767.26047546 745.9681366 767.26047546 744.59375 767.28125 C743.62957153 767.29965942 742.66539307 767.31806885 741.67199707 767.33703613 C738.61472031 767.39517241 735.55738945 767.4481552 732.5 767.5 C707.46806091 767.84207776 707.46806091 767.84207776 682.55078125 770.03125 C672.64337847 771.30199194 662.75550947 771.40024929 652.77954102 771.53173828 C644.36945567 771.653091 636.37409498 771.95816854 628.09057617 773.54101562 C621.48041614 774.52269671 614.73552459 774.40459769 608.0625 774.5 C598.95409768 774.63053603 590.23669735 774.98953549 581.23657227 776.54101562 C573.91192793 777.57973716 566.46940018 777.43913603 559.08398438 777.56640625 C553.29992581 777.70292072 547.73346454 777.93879447 542.0390625 779 C534.21671644 780.44972141 526.34557432 780.40727398 518.4152832 780.53173828 C511.0877623 780.65781461 504.17608017 781.03287767 497.00024414 782.50976562 C489.49429992 783.73622311 481.76990765 783.76272665 474.17919922 784.10449219 C466.21679218 784.47170284 458.47975882 784.95327947 450.65087891 786.55859375 C444.37170835 787.60415834 437.93463494 787.44065079 431.58398438 787.56640625 C426.60572238 787.70166913 421.87635453 787.91012333 417.0078125 789 C409.9376651 790.58113297 402.75857905 790.42520628 395.54492188 790.56640625 C388.49977767 790.75051007 388.49977767 790.75051007 381.59375 792.015625 C375.34131076 793.58852985 368.96953443 793.28924677 362.5625 793.25 C361.30373047 793.25773438 360.04496094 793.26546875 358.74804688 793.2734375 C352.33759347 793.26006149 346.39609099 792.91086016 340.1472168 791.46777344 C336.10750731 790.58771848 331.99988941 790.54216335 327.8828125 790.34375 C325.01928472 790.00229953 323.51626669 789.30219249 321 788 C318.92830754 787.56526661 316.84272249 787.19345777 314.75 786.875 C313.67234375 786.70742188 312.5946875 786.53984375 311.484375 786.3671875 C310.66453125 786.24601563 309.8446875 786.12484375 309 786 C309 785.34 309 784.68 309 784 C307.906875 783.855625 306.81375 783.71125 305.6875 783.5625 C302 783 302 783 299 782 C299 781.34 299 780.68 299 780 C297.02 780 295.04 780 293 780 C293 779.01 293 778.02 293 777 C290.69 776.67 288.38 776.34 286 776 C286 775.34 286 774.68 286 774 C285.01 774 284.02 774 283 774 C281.97895449 773.02149805 280.9793879 772.02019573 280 771 C279.01 770.67 278.02 770.34 277 770 C277 769.01 277 768.02 277 767 C275.68 767 274.36 767 273 767 C273 766.01 273 765.02 273 764 C272.01 764 271.02 764 270 764 C268.25372522 761.38058783 267.61277612 759.96175123 267 757 C266.01 757 265.02 757 264 757 C263.67 756.01 263.34 755.02 263 754 C262.34 753.67 261.68 753.34 261 753 C260.375 750.4375 260.375 750.4375 260 748 C259.01 748.33 258.02 748.66 257 749 C257 747.02 257 745.04 257 743 C256.01 743 255.02 743 254 743 C253.87625 742.030625 253.7525 741.06125 253.625 740.0625 C253.41875 739.051875 253.2125 738.04125 253 737 C252.34 736.67 251.68 736.34 251 736 C250.6088062 733.93734178 250.49325481 731.90556733 250.34375 729.8125 C250.2303125 729.214375 250.116875 728.61625 250 728 C249.34 727.67 248.68 727.34 248 727 C247.62109375 725.26586914 247.62109375 725.26586914 247.4375 723.03515625 C247.36273438 722.23529297 247.28796875 721.43542969 247.2109375 720.61132812 C247.14132812 719.77021484 247.07171875 718.92910156 247 718.0625 C246.86234793 716.40685152 246.71687176 714.75182956 246.5625 713.09765625 C246.50191406 712.36039307 246.44132812 711.62312988 246.37890625 710.86352539 C246.13018469 708.76216017 246.13018469 708.76216017 244 707 C243.734375 704.46875 243.734375 704.46875 243.75 701.5 C243.74484375 700.5203125 243.7396875 699.540625 243.734375 698.53125 C244 696 244 696 246 694 C247.41930599 688.99068475 247.33082957 683.70555147 247.51757812 678.53125 C247.60829277 676.68272521 247.79631037 674.83950634 248 673 C248.66 672.67 249.32 672.34 250 672 C250.4683265 669.41394668 250.4683265 669.41394668 250.625 666.4375 C250.69976562 665.42558594 250.77453125 664.41367187 250.8515625 663.37109375 C250.90054687 662.58863281 250.94953125 661.80617188 251 661 C251.66 661 252.32 661 253 661 C253.33 658.03 253.66 655.06 254 652 C254.66 652 255.32 652 256 652 C256.33 649.36 256.66 646.72 257 644 C257.66 644 258.32 644 259 644 C259.28875 642.865625 259.5775 641.73125 259.875 640.5625 C260.24625 639.386875 260.6175 638.21125 261 637 C261.66 636.67 262.32 636.34 263 636 C263.65772428 632.97065509 263.65772428 632.97065509 264 630 C264.66 630 265.32 630 266 630 C266 624.39 266 618.78 266 613 C265.34 612.67 264.68 612.34 264 612 C263.5859375 609.49609375 263.5859375 609.49609375 263.375 606.4375 C263.30023438 605.42558594 263.22546875 604.41367187 263.1484375 603.37109375 C263.09945313 602.58863281 263.05046875 601.80617188 263 601 C262.34 601 261.68 601 261 601 C260.67 597.37 260.34 593.74 260 590 C259.01 590.33 258.02 590.66 257 591 C256.67 587.37 256.34 583.74 256 580 C255.34 580 254.68 580 254 580 C253.67 576.37 253.34 572.74 253 569 C252.34 569 251.68 569 251 569 C250.95101563 568.28972656 250.90203125 567.57945312 250.8515625 566.84765625 C250.77679688 565.92855469 250.70203125 565.00945313 250.625 564.0625 C250.55539062 563.14597656 250.48578125 562.22945312 250.4140625 561.28515625 C250.27742188 560.53105469 250.14078125 559.77695312 250 559 C249.34 558.67 248.68 558.34 248 558 C247.5859375 555.49609375 247.5859375 555.49609375 247.375 552.4375 C247.30023438 551.42558594 247.22546875 550.41367187 247.1484375 549.37109375 C247.09945313 548.58863281 247.05046875 547.80617188 247 547 C246.01 546.67 245.02 546.34 244 546 C244 542.7 244 539.4 244 536 C243.01 536.33 242.02 536.66 241 537 C240.67 533.37 240.34 529.74 240 526 C239.34 526 238.68 526 238 526 C237.67 522.37 237.34 518.74 237 515 C236.34 515 235.68 515 235 515 C234.67 511.04 234.34 507.08 234 503 C233.34 503 232.68 503 232 503 C231.67 499.7 231.34 496.4 231 493 C230.01 493.33 229.02 493.66 228 494 C228 490.04 228 486.08 228 482 C227.01 482.33 226.02 482.66 225 483 C224.67 479.37 224.34 475.74 224 472 C223.34 472 222.68 472 222 472 C221.95101562 471.21753906 221.90203125 470.43507813 221.8515625 469.62890625 C221.73941406 468.11103516 221.73941406 468.11103516 221.625 466.5625 C221.52058594 465.04849609 221.52058594 465.04849609 221.4140625 463.50390625 C221.27742187 462.67761719 221.14078125 461.85132813 221 461 C220.34 460.67 219.68 460.34 219 460 C218.5859375 457.71484375 218.5859375 457.71484375 218.375 454.9375 C218.26285156 453.55884766 218.26285156 453.55884766 218.1484375 452.15234375 C218.09945312 451.44207031 218.05046875 450.73179687 218 450 C217.34 450 216.68 450 216 450 C215.67 446.37 215.34 442.74 215 439 C214.01 439.33 213.02 439.66 212 440 C212 436.04 212 432.08 212 428 C211.01 428 210.02 428 209 428 C208.95101562 427.28972656 208.90203125 426.57945312 208.8515625 425.84765625 C208.73941406 424.46900391 208.73941406 424.46900391 208.625 423.0625 C208.55539062 422.14597656 208.48578125 421.22945313 208.4140625 420.28515625 C208.27742187 419.53105469 208.14078125 418.77695312 208 418 C207.34 417.67 206.68 417.34 206 417 C205.5859375 414.49609375 205.5859375 414.49609375 205.375 411.4375 C205.26285156 409.91962891 205.26285156 409.91962891 205.1484375 408.37109375 C205.09945312 407.58863281 205.05046875 406.80617188 205 406 C204.34 406 203.68 406 203 406 C202.01 401.05 202.01 401.05 201 396 C200.34 396 199.68 396 199 396 C199 392.37 199 388.74 199 385 C198.01 385.33 197.02 385.66 196 386 C195.67 382.04 195.34 378.08 195 374 C194.34 374 193.68 374 193 374 C192.95101562 373.28972656 192.90203125 372.57945312 192.8515625 371.84765625 C192.73941406 370.46900391 192.73941406 370.46900391 192.625 369.0625 C192.55539063 368.14597656 192.48578125 367.22945313 192.4140625 366.28515625 C192.27742187 365.53105469 192.14078125 364.77695312 192 364 C191.34 363.67 190.68 363.34 190 363 C189.5859375 360.49609375 189.5859375 360.49609375 189.375 357.4375 C189.26285156 355.91962891 189.26285156 355.91962891 189.1484375 354.37109375 C189.09945312 353.58863281 189.05046875 352.80617188 189 352 C188.34 352 187.68 352 187 352 C186.01 347.05 186.01 347.05 185 342 C184.34 342.33 183.68 342.66 183 343 C182.67 339.04 182.34 335.08 182 331 C181.34 331 180.68 331 180 331 C179.95101562 330.28972656 179.90203125 329.57945312 179.8515625 328.84765625 C179.73941406 327.46900391 179.73941406 327.46900391 179.625 326.0625 C179.55539063 325.14597656 179.48578125 324.22945313 179.4140625 323.28515625 C179.27742187 322.53105469 179.14078125 321.77695312 179 321 C178.34 320.67 177.68 320.34 177 320 C176.5859375 317.49609375 176.5859375 317.49609375 176.375 314.4375 C176.26285156 312.91962891 176.26285156 312.91962891 176.1484375 311.37109375 C176.09945312 310.58863281 176.05046875 309.80617188 176 309 C175.34 309 174.68 309 174 309 C173.67 305.37 173.34 301.74 173 298 C172.01 298 171.02 298 170 298 C170 294.37 170 290.74 170 287 C169.01 287.33 168.02 287.66 167 288 C166.67 284.37 166.34 280.74 166 277 C165.34 277 164.68 277 164 277 C163.95101562 276.28972656 163.90203125 275.57945312 163.8515625 274.84765625 C163.73941406 273.46900391 163.73941406 273.46900391 163.625 272.0625 C163.55539063 271.14597656 163.48578125 270.22945313 163.4140625 269.28515625 C163.27742187 268.53105469 163.14078125 267.77695312 163 267 C162.34 266.67 161.68 266.34 161 266 C160.5859375 263.49609375 160.5859375 263.49609375 160.375 260.4375 C160.26285156 258.91962891 160.26285156 258.91962891 160.1484375 257.37109375 C160.09945312 256.58863281 160.05046875 255.80617188 160 255 C159.34 255 158.68 255 158 255 C157.67 251.37 157.34 247.74 157 244 C156.01 244.33 155.02 244.66 154 245 C153.67 241.37 153.34 237.74 153 234 C152.34 234 151.68 234 151 234 C150.95101562 233.28972656 150.90203125 232.57945312 150.8515625 231.84765625 C150.73941406 230.46900391 150.73941406 230.46900391 150.625 229.0625 C150.55539063 228.14597656 150.48578125 227.22945312 150.4140625 226.28515625 C150.27742187 225.53105469 150.14078125 224.77695312 150 224 C149.34 223.67 148.68 223.34 148 223 C147.60534792 220.41682273 147.49193848 217.85811719 147.34375 215.25 C147.2303125 214.5075 147.116875 213.765 147 213 C146.34 212.67 145.68 212.34 145 212 C144.5859375 209.49609375 144.5859375 209.49609375 144.375 206.4375 C144.30023438 205.42558594 144.22546875 204.41367188 144.1484375 203.37109375 C144.09945312 202.58863281 144.05046875 201.80617187 144 201 C143.34 201 142.68 201 142 201 C141.67 197.37 141.34 193.74 141 190 C140.01 190.33 139.02 190.66 138 191 C137.67 187.37 137.34 183.74 137 180 C136.34 180 135.68 180 135 180 C134.95101562 179.28972656 134.90203125 178.57945312 134.8515625 177.84765625 C134.73941406 176.46900391 134.73941406 176.46900391 134.625 175.0625 C134.55539063 174.14597656 134.48578125 173.22945312 134.4140625 172.28515625 C134.27742187 171.53105469 134.14078125 170.77695313 134 170 C133.34 169.67 132.68 169.34 132 169 C131.60534792 166.41682273 131.49193848 163.85811719 131.34375 161.25 C131.2303125 160.5075 131.116875 159.765 131 159 C130.34 158.67 129.68 158.34 129 158 C128.5859375 155.49609375 128.5859375 155.49609375 128.375 152.4375 C128.30023438 151.42558594 128.22546875 150.41367188 128.1484375 149.37109375 C128.09945312 148.58863281 128.05046875 147.80617187 128 147 C127.01 147 126.02 147 125 147 C124.67 143.7 124.34 140.4 124 137 C123.34 137 122.68 137 122 137 C121.67 133.37 121.34 129.74 121 126 C120.34 126 119.68 126 119 126 C118.67 122.37 118.34 118.74 118 115 C117.34 115 116.68 115 116 115 C115.67 111.37 115.34 107.74 115 104 C114.34 104 113.68 104 113 104 C112.67 100.37 112.34 96.74 112 93 C111.01 93.33 110.02 93.66 109 94 C108.67 93.34 108.34 92.68 108 92 C106.05228195 92.00666183 106.05228195 92.00666183 104.06521606 92.01345825 C91.85144872 92.05393341 79.63769491 92.08395022 67.42387581 92.10362434 C61.14404641 92.11407887 54.86427099 92.12826845 48.58447266 92.15087891 C42.52853741 92.17254784 36.47265421 92.18455604 30.4166832 92.18975449 C28.10172582 92.19346097 25.78677142 92.20069836 23.47183609 92.21146011 C20.23913581 92.22589595 17.0066529 92.22798127 13.77392578 92.22705078 C12.80863953 92.23424133 11.84335327 92.24143188 10.84881592 92.24884033 C9.97099457 92.246091 9.09317322 92.24334167 8.18875122 92.24050903 C7.42366304 92.24235262 6.65857487 92.24419621 5.8703022 92.24609566 C4 92 4 92 2 90 C-0.05814996 89.39391903 -2.12047457 88.98825831 -4.22265625 88.5625 C-4.80917969 88.376875 -5.39570312 88.19125 -6 88 C-6.495 87.01 -6.495 87.01 -7 86 C-8.97888961 85.27306096 -10.97954558 84.60183749 -13 84 C-13 83.34 -13 82.68 -13 82 C-13.99 82 -14.98 82 -16 82 C-16.33 81.01 -16.66 80.02 -17 79 C-19.00121175 76.63493157 -19.96799661 76.0106678 -23 75 C-23 73.35 -23 71.7 -23 70 C-24.485 70.495 -24.485 70.495 -26 71 C-26.495 68.03 -26.495 68.03 -27 65 C-27.66 65 -28.32 65 -29 65 C-29.8095228 58.62661412 -30.15463655 52.42125335 -30.125 46 C-30.12886719 45.16210938 -30.13273437 44.32421875 -30.13671875 43.4609375 C-30.12811114 37.90042141 -29.70067493 32.51642485 -29 27 C-28.34 27 -27.68 27 -27 27 C-26.67 25.02 -26.34 23.04 -26 21 C-25.01 21.33 -24.02 21.66 -23 22 C-23 20.35 -23 18.7 -23 17 C-22.01 16.67 -21.02 16.34 -20 16 C-18.62517293 14.36739286 -17.29352333 12.69774938 -16 11 C-14.4375 9.1875 -14.4375 9.1875 -13 8 C-12.01 8 -11.02 8 -10 8 C-10 7.34 -10 6.68 -10 6 C-3.375 3 -3.375 3 0 3 C0 2.01 0 1.02 0 0 Z M499 239 C499 282.89 499 326.78 499 372 C529.012694 372.02911425 529.012694 372.02911425 559.02539062 372.04882812 C571.25692156 372.05477161 583.48844563 372.06177464 595.7199707 372.07543945 C604.62642788 372.08538485 613.53287951 372.09185308 622.43934208 372.09408849 C627.15828803 372.09539585 631.8772181 372.09848324 636.59615898 372.10573006 C641.03246139 372.11248801 645.4687413 372.11461742 649.90504837 372.11310768 C651.53815012 372.11338411 653.17125258 372.11539057 654.8043499 372.11920547 C657.0242121 372.12413922 659.24398796 372.12299949 661.46385193 372.12025452 C662.70919425 372.12117631 663.95453657 372.1220981 665.23761654 372.12304783 C667.90959594 372.31538409 667.90959594 372.31538409 669 371 C669.09622036 369.29174312 669.12187628 367.57947886 669.12025452 365.86851501 C669.12163201 364.75879554 669.12300951 363.64907606 669.12442875 362.50572872 C669.12083064 361.27270299 669.11723253 360.03967726 669.11352539 358.76928711 C669.11364593 357.46075807 669.11376646 356.15222902 669.11389065 354.80404758 C669.11411713 351.2529089 669.10830617 347.70180368 669.10128021 344.15067291 C669.09560045 340.82282094 669.09531792 337.4949705 669.09460449 334.16711426 C669.08934964 324.42390505 669.07538859 314.6807021 669.0625 304.9375 C669.041875 283.178125 669.02125 261.41875 669 239 C612.9 239 556.8 239 499 239 Z M714 239 C714 282.56 714 326.12 714 371 C716.75044454 372.37522227 718.92487864 372.1082973 722.00428772 372.08901978 C723.2845433 372.08342545 724.56479889 372.07783112 725.8838501 372.07206726 C727.31066976 372.06067875 728.73748858 372.04918534 730.16430664 372.03759766 C731.66049469 372.02909421 733.15668525 372.02102239 734.65287781 372.01335144 C738.7229845 371.99111971 742.79302285 371.96245568 746.86307836 371.93239641 C751.11470852 371.9017931 755.36636899 371.87613441 759.61802673 371.84970093 C766.75783038 371.80448305 773.89759534 371.75499884 781.03735352 371.703125 C789.30342157 371.64313122 797.56951248 371.59036489 805.83565241 371.54135668 C812.92187551 371.49915915 820.00806582 371.45310548 827.09424299 371.40379179 C831.33135923 371.374307 835.56847301 371.34617368 839.80562019 371.32149124 C843.78727461 371.29807902 847.76886561 371.26984159 851.75045967 371.23780251 C853.21584392 371.22681121 854.68124209 371.21753038 856.14664841 371.21003914 C858.13869351 371.19958292 860.13070041 371.18246544 862.12269592 371.16494751 C863.24007676 371.15719614 864.3574576 371.14944477 865.50869846 371.14145851 C867.9412476 371.28071374 867.9412476 371.28071374 869 370 C869.07258946 367.81360547 869.08373783 365.62499611 869.0625 363.4375 C869.05347656 362.23996094 869.04445313 361.04242188 869.03515625 359.80859375 C869.02355469 358.88175781 869.01195312 357.95492187 869 357 C869.66 357 870.32 357 871 357 C872.18681726 353.43954823 872.09689832 350.56191663 872.0625 346.8125 C872.05347656 345.54019531 872.04445313 344.26789063 872.03515625 342.95703125 C872.01775391 341.49330078 872.01775391 341.49330078 872 340 C872.66 340 873.32 340 874 340 C875.93096415 336.1380717 875.41789673 331.34833457 875.62109375 327.08984375 C875.74613281 326.07019531 875.87117187 325.05054688 876 324 C876.66 323.67 877.32 323.34 878 323 C878.25948781 320.31076274 878.42127314 317.69523716 878.5 315 C878.57872686 312.30476284 878.74051219 309.68923726 879 307 C879.66 306.67 880.32 306.34 881 306 C881.31241455 303.28553021 881.51336592 300.66090639 881.625 297.9375 C881.68300781 296.79958008 881.68300781 296.79958008 881.7421875 295.63867188 C881.83673562 293.75952805 881.91946756 291.87979664 882 290 C882.66 290 883.32 290 884 290 C885.13480527 286.39006828 885.10015767 283.0157673 885.0625 279.25 C885.05347656 278.07953125 885.04445313 276.9090625 885.03515625 275.703125 C885.02355469 274.81109375 885.01195312 273.9190625 885 273 C885.66 273 886.32 273 887 273 C888.50156874 269.99686252 888.09281204 267.20932478 888.0625 263.875 C888.05347656 262.59367187 888.04445313 261.31234375 888.03515625 259.9921875 C888.02355469 259.00476563 888.01195312 258.01734375 888 257 C888.99 256.67 889.98 256.34 891 256 C891 250.72 891 245.44 891 240 C803.385 239.505 803.385 239.505 714 239 Z M443.04646301 238.91770935 C442.22718927 238.92093848 441.40791552 238.92416761 440.5638153 238.92749459 C437.80917966 238.93959138 435.05464264 238.95895976 432.30004883 238.97827148 C430.32919022 238.98841197 428.35832928 238.99810589 426.38746643 239.00738525 C421.0282787 239.03388927 415.66914526 239.06666411 410.3099997 239.10053515 C404.71260106 239.13485539 399.11517329 239.16344968 393.51774597 239.19264221 C382.91427986 239.24881772 372.31085021 239.31016901 361.70742387 239.37336355 C349.63747232 239.44504754 337.56749155 239.51098631 325.49750483 239.57643402 C300.6649653 239.71121392 275.83247139 239.8532363 251 240 C251 243.3 251 246.6 251 250 C251.99 250.495 251.99 250.495 253 251 C253.4140625 253.06640625 253.4140625 253.06640625 253.625 255.5625 C253.69976562 256.38878906 253.77453125 257.21507812 253.8515625 258.06640625 C253.90054687 258.70449219 253.94953125 259.34257812 254 260 C254.99 260.33 255.98 260.66 257 261 C256.98839844 261.62648438 256.97679687 262.25296875 256.96484375 262.8984375 C256.95582031 263.71570313 256.94679688 264.53296875 256.9375 265.375 C256.92589844 266.18710937 256.91429687 266.99921875 256.90234375 267.8359375 C256.85533666 270.04937142 256.85533666 270.04937142 258 272 C258.66 272 259.32 272 260 272 C260.33 275.63 260.66 279.26 261 283 C261.66 283 262.32 283 263 283 C263.04898437 283.71027344 263.09796875 284.42054688 263.1484375 285.15234375 C263.22320312 286.07144531 263.29796875 286.99054688 263.375 287.9375 C263.44460938 288.85402344 263.51421875 289.77054687 263.5859375 290.71484375 C263.72257812 291.46894531 263.85921875 292.22304688 264 293 C264.66 293.33 265.32 293.66 266 294 C266.34375 295.99609375 266.34375 295.99609375 266.5 298.4375 C266.65121611 302.16559619 266.65121611 302.16559619 269 305 C269.4140625 307.1640625 269.4140625 307.1640625 269.625 309.625 C269.69976562 310.44226563 269.77453125 311.25953125 269.8515625 312.1015625 C269.90054687 312.72804688 269.94953125 313.35453125 270 314 C271.485 314.495 271.485 314.495 273 315 C272.96744792 316.98567708 272.93489583 318.97135417 272.90234375 320.95703125 C272.91736783 323.20305461 272.91736783 323.20305461 274 326 C274.66 326 275.32 326 276 326 C276.33 329.63 276.66 333.26 277 337 C277.66 337 278.32 337 279 337 C279.04898437 337.71027344 279.09796875 338.42054688 279.1484375 339.15234375 C279.22320312 340.07144531 279.29796875 340.99054688 279.375 341.9375 C279.44460938 342.85402344 279.51421875 343.77054687 279.5859375 344.71484375 C279.72257812 345.46894531 279.85921875 346.22304688 280 347 C280.66 347.33 281.32 347.66 282 348 C282.34375 349.99609375 282.34375 349.99609375 282.5 352.4375 C282.65121611 356.16559619 282.65121611 356.16559619 285 359 C285.62293612 361.84214604 286.0182365 364.68771313 286.4375 367.56640625 C286.623125 368.36949219 286.80875 369.17257812 287 370 C289.84878273 371.42439136 292.27359956 371.14447262 295.45985413 371.16494751 C296.13056 371.17059105 296.80126587 371.1762346 297.49229616 371.18204916 C299.75014648 371.19981414 302.00797512 371.21048239 304.26586914 371.22119141 C305.88028753 371.23240315 307.49470305 371.24403522 309.1091156 371.25605774 C313.50146532 371.28743328 317.89383056 371.31252912 322.28622746 371.3362546 C326.87422213 371.36180367 331.46218553 371.39214386 336.05015564 371.42172241 C343.75485447 371.47058488 351.45956949 371.51526113 359.16430664 371.55761719 C368.08482981 371.60672116 377.00528631 371.66301967 385.92574221 371.72303832 C393.57242343 371.77429566 401.21912152 371.82165194 408.86584753 371.86572587 C413.43833809 371.89208711 418.01080923 371.91983311 422.58326912 371.9510994 C426.88004354 371.98026589 431.17681785 372.00455473 435.47364235 372.02499962 C437.05515297 372.0333364 438.6366555 372.04340632 440.21814346 372.05528831 C442.36781177 372.07116383 444.51742 372.08091254 446.66712952 372.08901978 C447.87300248 372.09601709 449.07887545 372.10301441 450.32129002 372.11022377 C452.91954683 372.30626565 452.91954683 372.30626565 454 371 C454.09619441 369.30441297 454.12187659 367.6047916 454.12025452 365.90647888 C454.12162918 364.80285004 454.12300385 363.69922119 454.12442017 362.56214905 C454.12082489 361.34079758 454.11722961 360.11944611 454.11352539 358.86108398 C454.11374443 356.94428833 454.11374443 356.94428833 454.1139679 354.98876953 C454.11425585 351.47446409 454.1083594 347.9601925 454.10139394 344.44589496 C454.09516012 340.77700644 454.09455658 337.10811723 454.09336853 333.43922424 C454.0902553 326.48709565 454.08204202 319.5349827 454.07201904 312.58286101 C454.06085766 304.6700522 454.05534739 296.75724266 454.05032361 288.84442794 C454.0398594 272.56294279 454.02226011 256.28147339 454 240 C450.29856664 238.76618888 446.89878881 238.88364557 443.04646301 238.91770935 Z M303 416 C302.37405744 418.42433748 302.37405744 418.42433748 302 421 C302.96696849 422.03197478 303.97039036 423.03051355 305 424 C305.51171875 426.48046875 305.51171875 426.48046875 305.6875 429.1875 C305.75324219 430.08855469 305.81898438 430.98960937 305.88671875 431.91796875 C305.92410156 432.60503906 305.96148437 433.29210937 306 434 C306.66 434 307.32 434 308 434 C308.04898437 434.71027344 308.09796875 435.42054688 308.1484375 436.15234375 C308.22320312 437.07144531 308.29796875 437.99054688 308.375 438.9375 C308.44460938 439.85402344 308.51421875 440.77054687 308.5859375 441.71484375 C308.72257812 442.46894531 308.85921875 443.22304688 309 444 C309.66 444.33 310.32 444.66 311 445 C311.4140625 447.28515625 311.4140625 447.28515625 311.625 450.0625 C311.69976562 450.98160156 311.77453125 451.90070313 311.8515625 452.84765625 C311.90054687 453.55792969 311.94953125 454.26820313 312 455 C312.99 455.33 313.98 455.66 315 456 C314.98839844 456.62648438 314.97679687 457.25296875 314.96484375 457.8984375 C314.95582031 458.71570313 314.94679688 459.53296875 314.9375 460.375 C314.92589844 461.18710937 314.91429687 461.99921875 314.90234375 462.8359375 C314.85533666 465.04937142 314.85533666 465.04937142 316 467 C316.66 467 317.32 467 318 467 C317.938125 468.60875 317.938125 468.60875 317.875 470.25 C317.9885825 473.65747485 318.21273364 475.20739631 320 478 C320.33 478 320.66 478 321 478 C321.33 481.3 321.66 484.6 322 488 C322.66 488 323.32 488 324 488 C324.33 491.3 324.66 494.6 325 498 C326.485 498.495 326.485 498.495 328 499 C328 502.3 328 505.6 328 509 C329.485 509.495 329.485 509.495 331 510 C330.96744792 511.98567708 330.93489583 513.97135417 330.90234375 515.95703125 C330.91736783 518.20305461 330.91736783 518.20305461 332 521 C332.66 521 333.32 521 334 521 C334.495 525.95 334.495 525.95 335 531 C335.66 531 336.32 531 337 531 C337.495 536.445 337.495 536.445 338 542 C338.66 542 339.32 542 340 542 C340.33 545.3 340.66 548.6 341 552 C341.99 552.33 342.98 552.66 344 553 C343.98839844 553.62648438 343.97679687 554.25296875 343.96484375 554.8984375 C343.95582031 555.71570313 343.94679688 556.53296875 343.9375 557.375 C343.92589844 558.18710937 343.91429687 558.99921875 343.90234375 559.8359375 C343.85533666 562.04937142 343.85533666 562.04937142 345 564 C345.66 564 346.32 564 347 564 C346.90234375 565.98567708 346.8046875 567.97135417 346.70703125 569.95703125 C346.80591259 572.09945287 346.80591259 572.09945287 348.46875 573.46875 C350.4949819 575.4949819 350.48337848 576.870623 350.6875 579.6875 C350.75324219 580.49574219 350.81898438 581.30398438 350.88671875 582.13671875 C350.92410156 582.75160156 350.96148437 583.36648438 351 584 C353.5216376 583.88496731 356.0418119 583.75825223 358.5625 583.625 C359.61920898 583.57859375 359.61920898 583.57859375 360.69726562 583.53125 C364.17320419 583.3390322 367.09619917 582.97201873 370.46484375 581.9921875 C375.41458169 580.60297928 380.21549575 580.57942378 385.328125 580.43359375 C390.20849724 580.24269484 394.28148998 579.34965203 399 578 C401.97511427 577.68195385 404.94764789 577.58578479 407.9375 577.5 C413.22270595 577.34758524 417.95217688 576.85827958 423.05493164 575.45898438 C426.26185423 574.70223598 429.46639383 574.63187173 432.75 574.5 C444.18260516 574.68106093 444.18260516 574.68106093 454 571 C454.096708 569.01305149 454.12187052 567.02260987 454.12025452 565.03330994 C454.12162918 563.73615555 454.12300385 562.43900116 454.12442017 561.10253906 C454.12088055 559.6516111 454.11724573 558.20068337 454.11352539 556.74975586 C454.11324353 555.23238629 454.11340123 553.71501658 454.1139679 552.19764709 C454.11425591 548.06559484 454.10835858 543.93357137 454.10139394 539.80152583 C454.09516102 535.48801108 454.09455665 531.17449573 454.09336853 526.86097717 C454.09025503 518.68699883 454.08204139 510.51303379 454.07201904 502.33906132 C454.06085848 493.03571031 454.0553476 483.73235868 454.05032361 474.42900264 C454.03985879 455.28599421 454.02225899 436.14299817 454 417 C450.76020276 415.92006759 448.42869265 415.8768597 445.02058411 415.87974548 C443.77116531 415.87837082 442.52174652 415.87699615 441.23446655 415.87557983 C439.84747291 415.87911897 438.4604795 415.88275378 437.07348633 415.88647461 C435.61493431 415.88675664 434.15638214 415.88659843 432.6978302 415.8860321 C428.73531191 415.88574475 424.77282378 415.89163147 420.81031251 415.89860606 C416.67031141 415.90484992 412.53030965 415.90544422 408.39030457 415.90663147 C400.54930263 415.90974173 392.70831461 415.91795103 384.86731881 415.92798096 C375.94118156 415.93915154 367.01504366 415.94465493 358.08890116 415.94967639 C339.72592621 415.96013388 321.36296423 415.97772745 303 416 Z M499 416 C499 465.83 499 515.66 499 567 C502.465 566.01 502.465 566.01 506 565 C508.44360352 564.71289062 508.44360352 564.71289062 510.62890625 564.65625 C511.43650391 564.62660156 512.24410156 564.59695313 513.07617188 564.56640625 C514.73762743 564.52203116 516.39908578 564.47776082 518.06054688 564.43359375 C521.63112156 564.30230164 524.58934756 564.13688415 528 563 C532.13790399 561.62069867 536.10237387 561.61524182 540.4375 561.5 C546.36176302 561.34177145 551.2724755 560.63826399 557 559 C560.98050826 558.59521746 564.97511516 558.54095267 568.97265625 558.43359375 C573.99192966 558.24829152 578.14984678 557.39329755 583 556 C586.63557479 555.53218971 590.28229024 555.26655142 593.9375 555 C601.60868441 554.48151142 601.60868441 554.48151142 609.125 552.96875 C614.23054116 551.69236471 619.13980201 551.583858 624.37695312 551.43359375 C629.23849646 551.24229264 633.29977947 550.34592445 638 549 C640.9336484 548.68153905 643.86406738 548.58970637 646.8125 548.5 C652.73666351 548.2541916 658.36686494 547.80024604 664.15234375 546.40234375 C666 546 666 546 669 546 C669 503.1 669 460.2 669 416 C612.9 416 556.8 416 499 416 Z M714 416 C714 457.25 714 498.5 714 541 C718.455 540.01 718.455 540.01 723 539 C726.7540422 538.66731549 730.48918498 538.50310328 734.25390625 538.34375 C737.05534094 538.08668404 739.26537086 537.72612541 741.9296875 537 C746.84097274 535.68127855 751.67445001 535.58838317 756.73242188 535.43359375 C760.1905453 535.28884973 763.019674 534.99415714 766.3671875 534 C771.96942848 532.45787775 777.56782634 532.57135172 783.34960938 532.43359375 C788.34650964 532.26834759 792.25269714 531.65348236 797 530 C799.78647241 529.6738895 802.57196518 529.58478931 805.375 529.5 C810.511419 529.34295122 815.10164366 528.814169 820.0625 527.45898438 C824.26659462 526.4630547 828.62665968 526.52965796 832.92578125 526.34375 C836.16822909 526.21920535 836.16822909 526.21920535 839 524 C840.38723067 520.54381386 840.09924977 516.92497653 840.0625 513.25 C840.05347656 512.07953125 840.04445313 510.9090625 840.03515625 509.703125 C840.02355469 508.81109375 840.01195312 507.9190625 840 507 C840.66 507 841.32 507 842 507 C843.18681726 503.43954823 843.09689832 500.56191663 843.0625 496.8125 C843.05347656 495.54019531 843.04445313 494.26789063 843.03515625 492.95703125 C843.01775391 491.49330078 843.01775391 491.49330078 843 490 C843.99 489.67 844.98 489.34 846 489 C846.07347656 487.39318359 846.07347656 487.39318359 846.1484375 485.75390625 C846.22345294 484.35674361 846.2990013 482.9596095 846.375 481.5625 C846.4059375 480.85544922 846.436875 480.14839844 846.46875 479.41992188 C846.57280629 477.60760812 846.77919892 475.80182012 847 474 C847.66 473.67 848.32 473.34 849 473 C849.31241455 470.28553021 849.51336592 467.66090639 849.625 464.9375 C849.68300781 463.79958008 849.68300781 463.79958008 849.7421875 462.63867188 C849.83673562 460.75952805 849.91946756 458.87979664 850 457 C850.66 457 851.32 457 852 457 C852.04898438 455.85660156 852.09796875 454.71320313 852.1484375 453.53515625 C852.22345189 452.04424527 852.29900028 450.55336108 852.375 449.0625 C852.4059375 448.30775391 852.436875 447.55300781 852.46875 446.77539062 C852.5726315 444.84492605 852.77895614 442.92057919 853 441 C853.99 440.505 853.99 440.505 855 440 C856.42056443 435.73830671 856.38461848 431.49912317 856.62109375 427.03125 C857 424 857 424 859 421 C859 419.35 859 417.7 859 416 C811.15 416 763.3 416 714 416 Z M268 622 C269 624 269 624 269 624 Z " fill="#EAFF00" transform="translate(49,47)"/>
<path d="M0 0 C0.92039062 0.30679688 1.84078125 0.61359375 2.7890625 0.9296875 C6.17455231 2.0581841 9.19937964 3.50190515 12.375 5.125 C13.43460938 5.66382813 14.49421875 6.20265625 15.5859375 6.7578125 C16.38257813 7.16773438 17.17921875 7.57765625 18 8 C18 8.66 18 9.32 18 10 C19.98 10.33 21.96 10.66 24 11 C24 11.99 24 12.98 24 14 C25.32 14 26.64 14 28 14 C28 14.99 28 15.98 28 17 C28.99 17 29.98 17 31 17 C31 17.99 31 18.98 31 20 C31.99 20 32.98 20 34 20 C34.99 21.485 34.99 21.485 36 23 C36.86625 23.825 37.7325 24.65 38.625 25.5 C41 28 41 28 41 31 C41.99 31 42.98 31 44 31 C44.99 32.98 44.99 32.98 46 35 C46.33 35 46.66 35 47 35 C47.12375 35.804375 47.2475 36.60875 47.375 37.4375 C47.58125 38.283125 47.7875 39.12875 48 40 C48.66 40.33 49.32 40.66 50 41 C50.72693904 42.97888961 51.39816251 44.97954558 52 47 C52.33 47 52.66 47 53 47 C53.33 49.97 53.66 52.94 54 56 C54.99 55.67 55.98 55.34 57 55 C57 59.29 57 63.58 57 68 C57.99 67.67 58.98 67.34 60 67 C60 77.89 60 88.78 60 100 C59.01 99.67 58.02 99.34 57 99 C57 103.29 57 107.58 57 112 C56.34 112 55.68 112 55 112 C54.87882813 112.56589844 54.75765625 113.13179687 54.6328125 113.71484375 C54.38144531 114.81505859 54.38144531 114.81505859 54.125 115.9375 C53.88136719 117.03384766 53.88136719 117.03384766 53.6328125 118.15234375 C53 120 53 120 51 121 C50.835 121.825 50.67 122.65 50.5 123.5 C50.335 124.325 50.17 125.15 50 126 C49.34 126.33 48.68 126.66 48 127 C47.34444881 129.52733235 47.34444881 129.52733235 47 132 C46.34 132 45.68 132 45 132 C44.67 133.32 44.34 134.64 44 136 C43.01 136 42.02 136 41 136 C40.814375 136.9590625 40.814375 136.9590625 40.625 137.9375 C40.41875 138.618125 40.2125 139.29875 40 140 C39.34 140.33 38.68 140.66 38 141 C37.67 141.99 37.34 142.98 37 144 C35.35360035 145.35827971 33.68704193 146.69254251 32 148 C31.67 148.66 31.34 149.32 31 150 C30.01 150 29.02 150 28 150 C27.67 150.99 27.34 151.98 27 153 C26.01 153 25.02 153 24 153 C24 153.66 24 154.32 24 155 C22.11930017 157.6120831 21.02464205 157.99468505 17.8125 158.6875 C16.884375 158.790625 15.95625 158.89375 15 159 C15 159.99 15 160.98 15 162 C12.69 162.33 10.38 162.66 8 163 C8 163.66 8 164.32 8 165 C4.68885166 166.12880057 1.41021743 167.21302675 -2 168 C-2 168.66 -2 169.32 -2 170 C-19.82 170 -37.64 170 -56 170 C-56 169.01 -56 168.02 -56 167 C-56.63808594 166.89042969 -57.27617188 166.78085938 -57.93359375 166.66796875 C-58.75988281 166.50941406 -59.58617187 166.35085938 -60.4375 166.1875 C-61.67306641 165.96126953 -61.67306641 165.96126953 -62.93359375 165.73046875 C-63.61550781 165.48941406 -64.29742188 165.24835938 -65 165 C-65.33 164.01 -65.66 163.02 -66 162 C-67.98 162 -69.96 162 -72 162 C-72 161.01 -72 160.02 -72 159 C-72.721875 158.896875 -73.44375 158.79375 -74.1875 158.6875 C-77.30053492 157.92653591 -79.43005998 156.9090983 -82 155 C-82 154.01 -82 153.02 -82 152 C-82.99 152 -83.98 152 -85 152 C-87 149.6875 -87 149.6875 -89 147 C-91.12399867 144.62112149 -91.86597409 144.0446753 -95 143 C-95.66 142.01 -96.32 141.02 -97 140 C-97.96873032 138.64377755 -98.96434215 137.30582947 -100 136 C-100.33 136 -100.66 136 -101 136 C-101.33 134.35 -101.66 132.7 -102 131 C-102.66 131 -103.32 131 -104 131 C-104.185625 129.7934375 -104.185625 129.7934375 -104.375 128.5625 C-104.58125 127.716875 -104.7875 126.87125 -105 126 C-105.66 125.67 -106.32 125.34 -107 125 C-107.40729228 122.67843403 -107.74438677 120.3431213 -108 118 C-109.485 118.495 -109.485 118.495 -111 119 C-111 116.03 -111 113.06 -111 110 C-112.485 110.495 -112.485 110.495 -114 111 C-114.04898438 110.00097656 -114.09796875 109.00195312 -114.1484375 107.97265625 C-114.26058594 106.03712891 -114.26058594 106.03712891 -114.375 104.0625 C-114.44460938 102.77472656 -114.51421875 101.48695313 -114.5859375 100.16015625 C-114.79089844 98.59587891 -114.79089844 98.59587891 -115 97 C-115.66 96.67 -116.32 96.34 -117 96 C-117 87.75 -117 79.5 -117 71 C-116.01 70.505 -116.01 70.505 -115 70 C-114.53045739 66.95418731 -114.53045739 66.95418731 -114.375 63.4375 C-114.30023437 62.23996094 -114.22546875 61.04242187 -114.1484375 59.80859375 C-114.09945312 58.88175781 -114.05046875 57.95492187 -114 57 C-113.34 57 -112.68 57 -112 57 C-111.67 54.03 -111.34 51.06 -111 48 C-110.01 48.33 -109.02 48.66 -108 49 C-107.87625 47.865625 -107.7525 46.73125 -107.625 45.5625 C-107.41875 44.386875 -107.2125 43.21125 -107 42 C-106.01 41.505 -106.01 41.505 -105 41 C-104.835 40.34 -104.67 39.68 -104.5 39 C-104.335 38.34 -104.17 37.68 -104 37 C-103.01 36.505 -103.01 36.505 -102 36 C-101.835 35.34 -101.67 34.68 -101.5 34 C-101.335 33.34 -101.17 32.68 -101 32 C-100.01 31.505 -100.01 31.505 -99 31 C-98.29848848 29.6846659 -97.63474075 28.34882408 -97 27 C-95 24 -95 24 -92 23 C-89.63493157 20.99878825 -89.0106678 20.03200339 -88 17 C-87.01 17 -86.02 17 -85 17 C-84.505 15.515 -84.505 15.515 -84 14 C-78.74285714 10 -78.74285714 10 -75 10 C-75 9.34 -75 8.68 -75 8 C-72 6 -72 6 -69 6 C-69 5.34 -69 4.68 -69 4 C-65.535 3.505 -65.535 3.505 -62 3 C-62 2.34 -62 1.68 -62 1 C-60.02 1 -58.04 1 -56 1 C-56 0.34 -56 -0.32 -56 -1 C-39.54291647 -4.74252458 -15.21565999 -10.14377332 0 0 Z " fill="#EAFF00" transform="translate(877,871)"/>
<path d="M0 0 C0 0.66 0 1.32 0 2 C4.95 2.99 4.95 2.99 10 4 C10 4.66 10 5.32 10 6 C11.65 6 13.3 6 15 6 C15.33 6.99 15.66 7.98 16 9 C17.31774196 9.39044206 18.65667272 9.70955086 20 10 C22.01526169 10.96887581 24.01833966 11.9641321 26 13 C26 13.99 26 14.98 26 16 C26.99 16 27.98 16 29 16 C29.99 16.99 29.99 16.99 31 18 C32.80887574 19.46213974 34.62000202 20.92066688 36.44140625 22.3671875 C38.21404462 24.22423722 38.60434461 25.4959892 39 28 C39.99 28 40.98 28 42 28 C42 29.32 42 30.64 42 32 C42.99 32 43.98 32 45 32 C45 33.32 45 34.64 45 36 C45.99 36 46.98 36 48 36 C48.12375 36.639375 48.2475 37.27875 48.375 37.9375 C48.58125 38.618125 48.7875 39.29875 49 40 C49.66 40.33 50.32 40.66 51 41 C51.72693904 42.97888961 52.39816251 44.97954558 53 47 C53.66 47 54.32 47 55 47 C55 49.64 55 52.28 55 55 C55.99 54.67 56.98 54.34 58 54 C58.04898438 54.71027344 58.09796875 55.42054688 58.1484375 56.15234375 C58.26058594 57.53099609 58.26058594 57.53099609 58.375 58.9375 C58.47941406 60.31228516 58.47941406 60.31228516 58.5859375 61.71484375 C58.72257813 62.46894531 58.85921875 63.22304688 59 64 C59.66 64.33 60.32 64.66 61 65 C61 78.86 61 92.72 61 107 C60.34 107 59.68 107 59 107 C58.67 110.3 58.34 113.6 58 117 C57.34 117 56.68 117 56 117 C55.67 119.31 55.34 121.62 55 124 C54.01 124 53.02 124 52 124 C51.814375 125.4540625 51.814375 125.4540625 51.625 126.9375 C51.41875 127.948125 51.2125 128.95875 51 130 C50.34 130.33 49.68 130.66 49 131 C48.835 131.66 48.67 132.32 48.5 133 C48.335 133.66 48.17 134.32 48 135 C47.34 135.33 46.68 135.66 46 136 C45.31513275 137.32407669 44.65129797 138.65909241 44 140 C43.01971384 141.34789347 42.02028865 142.68212715 41 144 C40.34 144.99 39.68 145.98 39 147 C38.01 147.33 37.02 147.66 36 148 C34.62517293 149.63260714 33.29352333 151.30225062 32 153 C30.4375 154.8125 30.4375 154.8125 29 156 C28.01 156 27.02 156 26 156 C26 156.66 26 157.32 26 158 C24.68 158 23.36 158 22 158 C22 158.66 22 159.32 22 160 C16.70588235 164 16.70588235 164 13 164 C13 164.66 13 165.32 13 166 C8.05 166.99 8.05 166.99 3 168 C3 168.66 3 169.32 3 170 C2.34 170 1.68 170 1 170 C1 170.66 1 171.32 1 172 C-17.15 172 -35.3 172 -54 172 C-54.33 170.68 -54.66 169.36 -55 168 C-57.64 167.67 -60.28 167.34 -63 167 C-63.33 166.01 -63.66 165.02 -64 164 C-66.31 163.67 -68.62 163.34 -71 163 C-71 162.34 -71 161.68 -71 161 C-71.99 161 -72.98 161 -74 161 C-75.02104551 160.02149805 -76.0206121 159.02019573 -77 158 C-77.99 157.67 -78.98 157.34 -80 157 C-80.33 156.34 -80.66 155.68 -81 155 C-81.99 154.67 -82.98 154.34 -84 154 C-84 153.01 -84 152.02 -84 151 C-84.99 151 -85.98 151 -87 151 C-87.66 150.01 -88.32 149.02 -89 148 C-89.680625 147.34 -90.36125 146.68 -91.0625 146 C-93 144 -93 144 -94 141 C-94.99 140.67 -95.98 140.34 -97 140 C-97 138.68 -97 137.36 -97 136 C-97.99 136 -98.98 136 -100 136 C-100 134.35 -100 132.7 -100 131 C-100.99 131 -101.98 131 -103 131 C-103.185625 129.7934375 -103.185625 129.7934375 -103.375 128.5625 C-103.58125 127.716875 -103.7875 126.87125 -104 126 C-104.66 125.67 -105.32 125.34 -106 125 C-106.33333333 123 -106.66666667 121 -107 119 C-107.66 118.67 -108.32 118.34 -109 118 C-109.4140625 115.71484375 -109.4140625 115.71484375 -109.625 112.9375 C-109.73714844 111.55884766 -109.73714844 111.55884766 -109.8515625 110.15234375 C-109.90054687 109.44207031 -109.94953125 108.73179687 -110 108 C-111.485 108.495 -111.485 108.495 -113 109 C-113 93.49 -113 77.98 -113 62 C-112.01 62.33 -111.02 62.66 -110 63 C-109.95101563 62.28972656 -109.90203125 61.57945312 -109.8515625 60.84765625 C-109.77679688 59.92855469 -109.70203125 59.00945313 -109.625 58.0625 C-109.52058594 56.68771484 -109.52058594 56.68771484 -109.4140625 55.28515625 C-109.27742188 54.53105469 -109.14078125 53.77695312 -109 53 C-108.01 52.505 -108.01 52.505 -107 52 C-106.835 51.01 -106.67 50.02 -106.5 49 C-106.335 48.01 -106.17 47.02 -106 46 C-105.01 45.505 -105.01 45.505 -104 45 C-103.34444881 42.47266765 -103.34444881 42.47266765 -103 40 C-102.01 40 -101.02 40 -100 40 C-100 38.35 -100 36.7 -100 35 C-99.01 35 -98.02 35 -97 35 C-96.87625 34.360625 -96.7525 33.72125 -96.625 33.0625 C-96.315625 32.0415625 -96.315625 32.0415625 -96 31 C-95.01 30.505 -95.01 30.505 -94 30 C-93.67 29.01 -93.34 28.02 -93 27 C-92.34 26.67 -91.68 26.34 -91 26 C-90.67 25.01 -90.34 24.02 -90 23 C-89.01 23 -88.02 23 -87 23 C-87 22.01 -87 21.02 -87 20 C-86.01 20 -85.02 20 -84 20 C-84 19.34 -84 18.68 -84 18 C-83.01 18 -82.02 18 -81 18 C-80.505 16.515 -80.505 16.515 -80 15 C-79.01 15 -78.02 15 -77 15 C-77 14.34 -77 13.68 -77 13 C-75.11930017 10.3879169 -74.02464205 10.00531495 -70.8125 9.3125 C-69.4203125 9.1578125 -69.4203125 9.1578125 -68 9 C-67.67 8.01 -67.34 7.02 -67 6 C-65.02 6 -63.04 6 -61 6 C-61 5.01 -61 4.02 -61 3 C-60.12988281 2.81824219 -60.12988281 2.81824219 -59.2421875 2.6328125 C-55.79764736 1.89388475 -52.45610096 1.15864381 -49.125 0 C-32.81342249 -5.2197048 -16.45744836 -3.23374424 0 0 Z " fill="#EAFF00" transform="translate(390,869)"/>
<path d="M0 0 C0.33 0 0.66 0 1 0 C1 2.64 1 5.28 1 8 C0.67 8 0.34 8 0 8 C0 5.36 0 2.72 0 0 Z " fill="#EAFF00" transform="translate(274,951)"/>
</svg>
